PathFileType  4	(X/Y/Z) C:\Users\wagnerel85475\Documents\Thesis\opencap-core\Data\3375ffbc-daeb-4a43-b4f7-ac9899cd4c71\MarkerData\PreAugmentation
DataRate	CameraRate	NumFrames	NumMarkers	Units	OrigDataRate	OrigDataStartFrame	OrigNumFrames
60.0	60.0	12	20	m	60.0	561	641
Frame#	Time	Neck			RShoulder			RElbow			RWrist			LShoulder			LElbow			LWrist			midHip			RHip			RKnee			RAnkle			LHip			LKnee			LAnkle			LBigToe			LSmallToe			LHeel			RBigToe			RSmallToe			RHeel			
		X1	Y1	Z1	X2	Y2	Z2	X3	Y3	Z3	X4	Y4	Z4	X5	Y5	Z5	X6	Y6	Z6	X7	Y7	Z7	X8	Y8	Z8	X9	Y9	Z9	X10	Y10	Z10	X11	Y11	Z11	X12	Y12	Z12	X13	Y13	Z13	X14	Y14	Z14	X15	Y15	Z15	X16	Y16	Z16	X17	Y17	Z17	X18	Y18	Z18	X19	Y19	Z19	X20	Y20	Z20	

561	9.3333333	0.5888400	1.3670800	-0.1113100	0.5859700	1.3698500	0.0674100	0.7421300	1.1724100	0.1483100	1.0667700	1.1826400	0.0492900	0.5886700	1.3579000	-0.2992300	0.9029200	1.1512700	-0.3266300	1.1323800	1.1810800	-0.1651200	0.6602900	0.8098100	-0.0778000	0.6667600	0.8173700	0.0407300	0.6057600	0.3406600	0.0407700	0.5394800	-0.1702000	0.0882500	0.6617200	0.8074500	-0.1969500	0.5957800	0.3271200	-0.2096600	0.5394500	-0.1689500	-0.2614900	0.7631200	-0.2202800	-0.3294700	0.6920900	-0.2265600	-0.3623500	0.5023000	-0.2305800	-0.2509100	0.7099500	-0.2305600	0.1922700	0.6679600	-0.2313500	0.2236800	0.4755400	-0.2276500	0.0582200
562	9.3500000	0.5890200	1.3665900	-0.1116500	0.5949700	1.3695300	0.0631300	0.7416500	1.1723700	0.1488400	1.0718800	1.1834100	0.0447100	0.5889300	1.3603400	-0.2994500	0.9105700	1.1479900	-0.3228200	1.1339300	1.1804800	-0.1648000	0.6599000	0.8096300	-0.0775200	0.6659500	0.8163300	0.0409400	0.5964600	0.3354900	0.0451800	0.5394300	-0.1704300	0.0882300	0.6619300	0.8071000	-0.1966400	0.5969000	0.3245900	-0.2095300	0.5395200	-0.1687400	-0.2613700	0.7633100	-0.2200400	-0.3294400	0.6920700	-0.2266500	-0.3627100	0.5013100	-0.2336600	-0.2515000	0.7084700	-0.2310900	0.1919400	0.6680700	-0.2312700	0.2231600	0.4753300	-0.2277600	0.0582500
563	9.3666667	0.5986000	1.3668700	-0.1076600	0.5948300	1.3696400	0.0629000	0.7423300	1.1724200	0.1483100	1.0735500	1.1825100	0.0453000	0.5886900	1.3578700	-0.2992800	0.9030600	1.1478400	-0.3265400	1.1325300	1.1809700	-0.1650900	0.6602800	0.8097000	-0.0777200	0.6664300	0.8141800	0.0410100	0.5968900	0.3351800	0.0455000	0.5394900	-0.1701600	0.0882300	0.6706200	0.8082700	-0.1931800	0.5971100	0.3240900	-0.2093400	0.5393900	-0.1690000	-0.2615000	0.7631400	-0.2202500	-0.3294500	0.6920800	-0.2265500	-0.3623600	0.5011700	-0.2339200	-0.2515100	0.7100800	-0.2305600	0.1922100	0.6681100	-0.2313700	0.2236000	0.4754500	-0.2276400	0.0581900
564	9.3833333	0.5987500	1.3664200	-0.1079600	0.5951500	1.3694900	0.0631200	0.7416900	1.1725500	0.1488500	1.0720900	1.1801100	0.0446500	0.5890000	1.3572300	-0.2995300	0.9024000	1.1478200	-0.3267400	1.1336800	1.1805400	-0.1647900	0.6599400	0.8096800	-0.0775100	0.6659200	0.8163400	0.0409500	0.5962500	0.3321700	0.0456700	0.5394300	-0.1704400	0.0882300	0.6709700	0.8083000	-0.1929800	0.5970500	0.3242700	-0.2095100	0.5395400	-0.1687400	-0.2613800	0.7633200	-0.2200400	-0.3294600	0.6920900	-0.2266600	-0.3627300	0.5013200	-0.2336600	-0.2514900	0.7085300	-0.2310800	0.1919400	0.6681200	-0.2312600	0.2231600	0.4753400	-0.2277700	0.0582700
565	9.4000000	0.5984900	1.3668600	-0.1076000	0.5859800	1.3697500	0.0674600	0.7425300	1.1724300	0.1482600	1.0738400	1.1789900	0.0450900	0.5886300	1.3609600	-0.2991800	0.9029300	1.1477900	-0.3266100	1.1327400	1.1777500	-0.1652000	0.6604300	0.8097700	-0.0777900	0.6667100	0.8173100	0.0407300	0.6067500	0.3446900	0.0402400	0.5394900	-0.1701800	0.0882400	0.6708000	0.8084000	-0.1932400	0.5970900	0.3313100	-0.2093900	0.5394600	-0.1689300	-0.2615200	0.7632300	-0.2202900	-0.3295100	0.7010700	-0.2232900	-0.3659200	0.5012600	-0.2338800	-0.2515200	0.7098900	-0.2306000	0.1923100	0.6679100	-0.2314200	0.2237100	0.4754300	-0.2277000	0.0582000
566	9.4166667	0.5986700	1.3664200	-0.1079100	0.5862300	1.3696300	0.0677100	0.7420200	1.1725900	0.1487900	1.0725200	1.1764200	0.0444400	0.5889200	1.3603800	-0.2994200	0.9104600	1.1481400	-0.3227500	1.1267700	1.1771100	-0.1683300	0.6600900	0.8096800	-0.0775700	0.6661000	0.8163600	0.0409400	0.6065300	0.3450900	0.0399100	0.5394400	-0.1705000	0.0882300	0.6710800	0.8082900	-0.1930600	0.5959600	0.3273600	-0.2098200	0.5396000	-0.1686600	-0.2613900	0.7633700	-0.2200400	-0.3294700	0.7010600	-0.2233800	-0.3662700	0.5025300	-0.2303100	-0.2508800	0.7083900	-0.2311200	0.1920100	0.6679600	-0.2313000	0.2232500	0.4754000	-0.2278300	0.0582800
567	9.4333333	0.5984300	1.3638600	-0.1077100	0.5859900	1.3697800	0.0674100	0.7525700	1.1730400	0.1513800	1.0741000	1.1720900	0.0450400	0.5886600	1.3579100	-0.2992300	0.8948800	1.1478100	-0.3305800	1.1326600	1.1778300	-0.1652000	0.6699600	0.8148000	-0.0740500	0.6668400	0.8173700	0.0407200	0.6067700	0.3446500	0.0402300	0.5395600	-0.1701700	0.0882500	0.6709100	0.8084500	-0.1932300	0.5972900	0.3240500	-0.2093600	0.5394200	-0.1689200	-0.2614900	0.7631500	-0.2202600	-0.3294900	0.7010500	-0.2232800	-0.3659000	0.5024000	-0.2306000	-0.2509000	0.7099700	-0.2305900	0.1922800	0.6679800	-0.2314300	0.2236600	0.4755400	-0.2276400	0.0582000
568	9.4500000	0.5987000	1.3664200	-0.1079500	0.5862700	1.3696500	0.0676500	0.7521300	1.1728200	0.1519500	1.0808900	1.1730400	0.0476500	0.5888700	1.3603600	-0.2994200	0.9021200	1.1446500	-0.3267100	1.1340900	1.1768000	-0.1647700	0.6695000	0.8146200	-0.0737900	0.6658600	0.8132800	0.0412000	0.6056600	0.3413000	0.0403800	0.5394600	-0.1704600	0.0882200	0.6711700	0.8082000	-0.1930700	0.5958800	0.3273100	-0.2098500	0.5396200	-0.1686900	-0.2614000	0.7634200	-0.2200400	-0.3294500	0.7011000	-0.2233900	-0.3662600	0.5025100	-0.2303700	-0.2508800	0.7083500	-0.2311400	0.1920000	0.6679400	-0.2313300	0.2232400	0.4754200	-0.2278000	0.0582700
569	9.4666667	0.5888100	1.3639800	-0.1114000	0.5946200	1.3696700	0.0628700	0.7627200	1.1729300	0.1546800	1.0822600	1.1689500	0.0482700	0.5887000	1.3578700	-0.2992400	0.9028000	1.1447500	-0.3264700	1.1326800	1.1769800	-0.1652500	0.6606400	0.8097900	-0.0778500	0.6754200	0.8183200	0.0362400	0.6059200	0.3408600	0.0406800	0.5396100	-0.1701900	0.0882500	0.6709700	0.8083700	-0.1932400	0.5961300	0.3269500	-0.2096600	0.5394100	-0.1689100	-0.2614900	0.7631600	-0.2202500	-0.3294900	0.7010600	-0.2232700	-0.3659000	0.5023700	-0.2305400	-0.2509100	0.7099900	-0.2305700	0.1923000	0.6680000	-0.2314200	0.2236700	0.4756300	-0.2276200	0.0582200
570	9.4833333	0.5984800	1.3633800	-0.1079500	0.5862600	1.3696600	0.0676600	0.7618200	1.1728700	0.1552000	1.0726800	1.1727500	0.0445800	0.5888200	1.3572200	-0.2994600	0.8942300	1.1446900	-0.3231500	1.1339200	1.1727900	-0.1649300	0.6600700	0.8096900	-0.0776300	0.6745800	0.8173400	0.0364400	0.6066100	0.3375400	0.0398900	0.5395100	-0.1704800	0.0882200	0.6711200	0.8082500	-0.1931000	0.5958300	0.3272900	-0.2098100	0.5396100	-0.1686700	-0.2614200	0.7634000	-0.2200600	-0.3294600	0.7011000	-0.2234200	-0.3662600	0.5024800	-0.2302900	-0.2509000	0.7084000	-0.2311400	0.1920000	0.6680300	-0.2313300	0.2232600	0.4755400	-0.2278100	0.0582800
571	9.5000000	0.5984300	1.3637900	-0.1076600	0.5946900	1.3696600	0.0628900	0.7624200	1.1692500	0.1547500	1.0821600	1.1655800	0.0481700	0.5886600	1.3578200	-0.2991600	0.9110100	1.1419200	-0.3224700	1.1319800	1.1704800	-0.1652000	0.6605000	0.8139000	-0.0777100	0.6754000	0.8183800	0.0362100	0.6058400	0.3408900	0.0406200	0.5396300	-0.1701900	0.0882300	0.6708700	0.8085500	-0.1932200	0.5960500	0.3269200	-0.2096300	0.5394300	-0.1688600	-0.2614900	0.7631000	-0.2202800	-0.3295000	0.7010400	-0.2232800	-0.3659000	0.5023700	-0.2304700	-0.2509100	0.7100100	-0.2305800	0.1923100	0.6679700	-0.2314300	0.2236600	0.4756700	-0.2276400	0.0581800
572	9.5166667	0.5986900	1.3633800	-0.1080200	0.5950400	1.3695100	0.0631200	0.7517600	1.1723600	0.1520400	1.0728800	1.1693900	0.0444500	0.5890000	1.3572000	-0.2995100	0.8943900	1.1416100	-0.3230000	1.1396600	1.1644300	-0.1684000	0.6601600	0.8097800	-0.0776500	0.6750400	0.8205100	0.0362400	0.6056400	0.3414600	0.0402800	0.5395000	-0.1705000	0.0882100	0.6711800	0.8084500	-0.1931500	0.5957800	0.3274200	-0.2098300	0.5396500	-0.1686600	-0.2614100	0.7634400	-0.2200500	-0.3294500	0.7011200	-0.2233900	-0.3662500	0.5024800	-0.2302700	-0.2508900	0.7083600	-0.2311400	0.1920000	0.6679400	-0.2313200	0.2232500	0.4755600	-0.2278200	0.0582700
